<?xml version="1.0" encoding="UTF-8" standalone="no"?>
<svg
   xmlns:dc="http://purl.org/dc/elements/1.1/"
   xmlns:cc="http://creativecommons.org/ns#"
   xmlns:rdf="http://www.w3.org/1999/02/22-rdf-syntax-ns#"
   xmlns:svg="http://www.w3.org/2000/svg"
   xmlns="http://www.w3.org/2000/svg"
   viewBox="0 0 1600 1600"
   height="1600"
   width="1600"
   xml:space="preserve"
   id="svg2"
   version="1.1"><metadata
     id="metadata8"><rdf:RDF><cc:Work
         rdf:about=""><dc:format>image/svg+xml</dc:format><dc:type
           rdf:resource="http://purl.org/dc/dcmitype/StillImage" /></cc:Work></rdf:RDF></metadata><defs
     id="defs6"><clipPath
       id="clipPath18"
       clipPathUnits="userSpaceOnUse"><path
         id="path16"
         d="M 0,1200 H 1200 V 0 H 0 Z" /></clipPath><clipPath
       id="clipPath26"
       clipPathUnits="userSpaceOnUse"><path
         id="path24"
         d="M 501.915,475.408 H 531.25 V 444.125 H 501.915 Z" /></clipPath><clipPath
       id="clipPath42"
       clipPathUnits="userSpaceOnUse"><path
         id="path40"
         d="m 641.25,484.846 h 8.5 V 456 h -8.5 z" /></clipPath><clipPath
       id="clipPath58"
       clipPathUnits="userSpaceOnUse"><path
         id="path56"
         d="M 0,1200 H 1200 V 0 H 0 Z" /></clipPath><clipPath
       id="clipPath66"
       clipPathUnits="userSpaceOnUse"><path
         id="path64"
         d="M 591.661,738.333 H 624 v -33.937 h -32.339 z" /></clipPath><clipPath
       id="clipPath82"
       clipPathUnits="userSpaceOnUse"><path
         id="path80"
         d="M 0,1200 H 1200 V 0 H 0 Z" /></clipPath><clipPath
       id="clipPath90"
       clipPathUnits="userSpaceOnUse"><path
         id="path88"
         d="m 510.092,485.56 h 26.241 v -17.219 h -26.241 z" /></clipPath><clipPath
       id="clipPath106"
       clipPathUnits="userSpaceOnUse"><path
         id="path104"
         d="M 639.667,491.829 H 653 v -11.484 h -13.333 z" /></clipPath><clipPath
       id="clipPath122"
       clipPathUnits="userSpaceOnUse"><path
         id="path120"
         d="M 0,1200 H 1200 V 0 H 0 Z" /></clipPath><clipPath
       id="clipPath142"
       clipPathUnits="userSpaceOnUse"><path
         id="path140"
         d="M 0,1200 H 1200 V 0 H 0 Z" /></clipPath><clipPath
       id="clipPath154"
       clipPathUnits="userSpaceOnUse"><path
         id="path152"
         d="M 0,1200 H 1200 V 0 H 0 Z" /></clipPath><clipPath
       id="clipPath174"
       clipPathUnits="userSpaceOnUse"><path
         id="path172"
         d="M 0,1200 H 1200 V 0 H 0 Z" /></clipPath><clipPath
       id="clipPath182"
       clipPathUnits="userSpaceOnUse"><path
         id="path180"
         d="m 609.685,766.007 h 78.674 v -65.261 h -78.674 z" /></clipPath><clipPath
       id="clipPath198"
       clipPathUnits="userSpaceOnUse"><path
         id="path196"
         d="M 0,1200 H 1200 V 0 H 0 Z" /></clipPath><clipPath
       id="clipPath210"
       clipPathUnits="userSpaceOnUse"><path
         id="path208"
         d="M 0,1200 H 1200 V 0 H 0 Z" /></clipPath><clipPath
       id="clipPath222"
       clipPathUnits="userSpaceOnUse"><path
         id="path220"
         d="M 0,1200 H 1200 V 0 H 0 Z" /></clipPath><clipPath
       id="clipPath230"
       clipPathUnits="userSpaceOnUse"><path
         id="path228"
         d="m 579.519,736.023 h 26.127 v -44.407 h -26.127 z" /></clipPath><clipPath
       id="clipPath246"
       clipPathUnits="userSpaceOnUse"><path
         id="path244"
         d="M 0,1200 H 1200 V 0 H 0 Z" /></clipPath><clipPath
       id="clipPath254"
       clipPathUnits="userSpaceOnUse"><path
         id="path252"
         d="M 614.314,708.057 H 630.86 V 689.456 H 614.314 Z" /></clipPath><clipPath
       id="clipPath270"
       clipPathUnits="userSpaceOnUse"><path
         id="path268"
         d="M 0,1200 H 1200 V 0 H 0 Z" /></clipPath><clipPath
       id="clipPath278"
       clipPathUnits="userSpaceOnUse"><path
         id="path276"
         d="M 598.653,704.396 H 617.13 V 673.375 H 598.653 Z" /></clipPath><clipPath
       id="clipPath294"
       clipPathUnits="userSpaceOnUse"><path
         id="path292"
         d="m 591.667,678.014 h 27.595 V 550.853 h -27.595 z" /></clipPath></defs><g
     transform="matrix(1.3333333,0,0,-1.3333333,0,1600)"
     id="g10"><g
       id="g12"><g
         clip-path="url(#clipPath18)"
         id="g14"><g
           id="g20"><g
             id="g22" /><g
             id="g34"><g
               style="opacity:0.80000299"
               id="g32"
               clip-path="url(#clipPath26)"><g
                 id="g30"
                 transform="translate(511.2471,473.667)"><path
                   id="path28"
                   style="fill:#ceb69d;fill-opacity:1;fill-rule:nonzero;stroke:none"
                   d="m 0,0 c 0,0 -3.997,-0.735 -4.247,-5.326 -0.25,-4.591 0,-11.841 0,-11.841 0,0 -4,12.5 -5,3.25 -1,-9.25 7,-13.75 12.25,-15.25 5.25,-1.5 17,1.5 17,9 V -3.265 C 20.003,-3.265 4.247,5.326 0,0" /></g></g></g></g><g
           id="g36"><g
             id="g38" /><g
             id="g50"><g
               style="opacity:0.80000299"
               id="g48"
               clip-path="url(#clipPath42)"><g
                 id="g46"
                 transform="translate(648.75,484.8457)"><path
                   id="path44"
                   style="fill:#cdbeb2;fill-opacity:1;fill-rule:nonzero;stroke:none"
                   d="m 0,0 c 0,0 2.25,-21.596 0,-24.096 -2.25,-2.5 -7.5,-4.75 -7.5,-4.75 V 0 Z" /></g></g></g></g></g></g><g
       id="g52"><g
         clip-path="url(#clipPath58)"
         id="g54"><g
           id="g60"><g
             id="g62" /><g
             id="g74"><g
               style="opacity:0.80000299"
               id="g72"
               clip-path="url(#clipPath66)"><g
                 id="g70"
                 transform="translate(605.4639,738.3335)"><path
                   id="path68"
                   style="fill:#ceb69d;fill-opacity:1;fill-rule:nonzero;stroke:none"
                   d="m 0,0 c 0,0 -14.13,-6.833 -13.797,-10.333 0.333,-3.5 12.34,-23.605 12.34,-23.605 h 11.743 l 8.25,4.23 c 0,0 -19.572,9.041 -18.536,29.708" /></g></g></g></g></g></g><g
       id="g76"><g
         clip-path="url(#clipPath82)"
         id="g78"><g
           id="g84"><g
             id="g86" /><g
             id="g98"><g
               style="opacity:0.80000299"
               id="g96"
               clip-path="url(#clipPath90)"><g
                 id="g94"
                 transform="translate(513.4482,485.5596)"><path
                   id="path92"
                   style="fill:#ddd8ca;fill-opacity:1;fill-rule:nonzero;stroke:none"
                   d="m 0,0 c 0,0 -7.552,-9.212 0,-13.879 7.552,-4.667 13.885,-3.667 17.218,-1.667 3.334,2 5.667,7.02 5.667,7.02 0,0 -20.33,-0.669 -22.885,8.526" /></g></g></g></g><g
           id="g100"><g
             id="g102" /><g
             id="g114"><g
               style="opacity:0.80000299"
               id="g112"
               clip-path="url(#clipPath106)"><g
                 id="g110"
                 transform="translate(639.667,487.3447)"><path
                   id="path108"
                   style="fill:#ddd8ca;fill-opacity:1;fill-rule:nonzero;stroke:none"
                   d="m 0,0 13.333,4.484 c 0,0 -1.88,-11.482 -6.273,-11.482 -4.394,0 -6.726,-0.333 -7.06,7.667" /></g></g></g></g></g></g><g
       id="g116"><g
         clip-path="url(#clipPath122)"
         id="g118"><g
           transform="translate(579.5186,717.9995)"
           id="g124"><path
             id="path126"
             style="fill:#e2decd;fill-opacity:1;fill-rule:nonzero;stroke:none"
             d="m 0,0 c 0,0 -51.852,-23.999 -55.519,-35.999 -3.666,-12 -3.666,-21.664 -3.666,-32.331 0,-10.666 -2.667,-20.667 -4,-38 -1.334,-17.333 -5,-97.996 -5,-97.996 0,0 -5,-29 8.666,-34.666 13.667,-5.666 20.334,2.666 20.334,2.666 0,0 4.625,3.665 4.646,13.999 0.02,10.334 0,31 0,31 0,0 2.354,18.332 3.354,27.332 1,9 4,21.665 4,34.332 0,12.667 1.666,37.001 1.666,37.001 z" /></g><g
           transform="translate(554,625.3374)"
           id="g128"><path
             id="path130"
             style="fill:#e3dece;fill-opacity:1;fill-rule:nonzero;stroke:none"
             d="M 0,0 C 0,0 -17.667,-105 -5.333,-107.333 7,-109.667 74.333,-111 81.333,-103 c 7,8 12.001,15.333 11.334,49.999 C 92,-18.335 90.333,32.332 86,39.665 81.667,46.998 27.037,68.992 25.519,92.662" /></g><g
           transform="translate(605.6455,687.4043)"
           id="g132"><path
             id="path134"
             style="fill:#e3dece;fill-opacity:1;fill-rule:nonzero;stroke:none"
             d="m 0,0 c 0,0 20.075,10.938 25.215,9.605 5.139,-1.334 25.473,-15.653 24.473,-99.493 -1,-83.84 0.036,-92.505 0.036,-92.505 0,0 3.815,-12.333 -5.944,-15 l -9.759,-2.667 c -2.417,13.406 -4.417,13.605 -4.417,25.406 C 29.604,-162.988 20.312,-0.606 0,0" /></g></g></g><g
       id="g136"><g
         clip-path="url(#clipPath142)"
         id="g138"><g
           transform="translate(545.6943,521.915)"
           id="g144"><path
             id="path146"
             style="fill:#584d40;fill-opacity:1;fill-rule:nonzero;stroke:none"
             d="m 0,0 c 0,0 -2.967,-11.906 -0.706,-15.782 2.262,-3.876 26.512,-4.473 42.012,-4.473 15.5,0 46.443,0.207 48.346,4.427 1.904,4.22 -0.013,16.25 -0.013,16.25 C 89.639,0.422 64.944,-12.244 0,0" /></g></g></g><g
       id="g148"><g
         clip-path="url(#clipPath154)"
         id="g150"><g
           transform="translate(521.209,290.4414)"
           id="g156"><path
             id="path158"
             style="fill:#36332e;fill-opacity:1;fill-rule:nonzero;stroke:none"
             d="m 0,0 c 0,0 -3.541,-13.191 0,-28.441 3.541,-15.25 15.291,-37 27.541,-41.25 12.25,-4.25 15.25,1 15.75,7.5 0.5,6.5 -11.896,35.968 -11.698,42.859 C 31.791,-12.441 13.459,11.191 0,0" /></g><g
           transform="translate(589.3091,275.9404)"
           id="g160"><path
             id="path162"
             style="fill:#36332e;fill-opacity:1;fill-rule:nonzero;stroke:none"
             d="m 0,0 c 0,0 -6.309,-55.94 3.691,-55.44 10,0.5 17.75,3.25 22.5,25.25 4.75,22 3.25,27.5 3.25,27.5 0,0 -25.632,13.63 -29.441,2.69" /></g><g
           transform="translate(544.9888,508.75)"
           id="g164"><path
             id="path166"
             style="fill:#58574e;fill-opacity:1;fill-rule:nonzero;stroke:none"
             d="m 0,0 c 0,0 23.261,-4 53.261,-3.75 30,0.25 37.097,3.712 37.097,3.712 l 6.903,-40.371 -1,-28.841 c 0,0 -1.25,-65.75 -4,-75.25 -2.75,-9.5 -4.5,-37 -4.5,-37 0,0 -4.25,-40.75 -12.25,-54.5 -8,-13.75 -20.5,-8 -20.5,-8 0,0 -12.75,9.25 -13.5,18.75 -0.75,9.5 4.25,39 4.25,39 0,0 2.239,25 2.869,41.25 0.631,16.25 -1.619,56.25 -3.869,62 l -2.25,5.75 c 0,0 -4.5,-47.25 -6.75,-61.25 -2.25,-14 -20.5,-74.25 -20.5,-74.25 0,0 -2.75,-22 -9.25,-26.75 -6.5,-4.75 -16,2.5 -19.5,5.5 -3.5,3 -13.25,21 -13.25,21 l 1.25,15.75 c 0,0 9.5,51.25 9.5,52.75 0,1.5 4.5,44.5 2.25,66.75 -2.25,22.25 -2,20.25 -2,20.25 0,0 3.978,54 15.739,57.5" /></g></g></g><g
       id="g168"><g
         clip-path="url(#clipPath174)"
         id="g170"><g
           id="g176"><g
             id="g178" /><g
             id="g190"><g
               style="opacity:0.80000299"
               id="g188"
               clip-path="url(#clipPath182)"><g
                 id="g186"
                 transform="translate(688.334,738.3335)"><path
                   id="path184"
                   style="fill:#d0b9a0;fill-opacity:1;fill-rule:nonzero;stroke:none"
                   d="m 0,0 c 0,0 1,-4.997 -9.667,-13.331 -10.667,-8.333 -37.999,-29.622 -46.333,-23 -8.334,6.623 -18.147,20.87 -21.84,33.498 -3.692,12.627 5.839,30.836 16.506,30.502 C -50.667,27.336 -4.333,7.331 0,0" /></g></g></g></g></g></g><g
       id="g192"><g
         clip-path="url(#clipPath198)"
         id="g194"><g
           transform="translate(617.5,776)"
           id="g200"><path
             id="path202"
             style="fill:#3c3a34;fill-opacity:1;fill-rule:nonzero;stroke:none"
             d="m 0,0 c 0,0 7.5,5.999 11.5,9.999 4,4 33,28.333 56.667,4.333 C 91.834,-9.668 81.5,-35 79.5,-36 c -2,-1 -8.666,-1.667 -8.666,-1.667 0,0 -18.666,0.668 -26,9.668 -7.334,9 -18.001,6.666 -19.334,0.666 -1.333,-6 -0.666,-8.666 -0.666,-8.666 H 12.167 c 0,0 -4.333,-1.667 -1,6.333 3.333,8 11.667,9 3.667,15.333 -8,6.334 -12,-0.333 -12,-0.333 0,0 -3.333,-13 -1,-17.333 2.333,-4.334 -1.834,-4 -1.834,-4 0,0 -7.167,9.332 0,35.999" /></g></g></g><g
       id="g204"><g
         clip-path="url(#clipPath210)"
         id="g206"><g
           transform="translate(605,1060)"
           id="g212"><path
             id="path214"
             style="fill:#49483f;fill-opacity:1;fill-rule:nonzero;stroke:none"
             d="m 0,0 5,-286 c 0,0 -8.375,4.125 -10.875,-6.25 -2.5,-10.375 7.375,-13.25 7.375,-13.25 0,0 -7.75,-22 0.625,-34.25 8.375,-12.25 19.088,-12.193 19.088,-12.193 0,0 -13.869,19.818 -14.854,27.318 -0.984,7.5 3.516,11.125 3.766,12.125 0.25,1 -1.125,15.5 2.375,28.5 3.5,13 0,284 0,284 z" /></g></g></g><g
       id="g216"><g
         clip-path="url(#clipPath222)"
         id="g218"><g
           id="g224"><g
             id="g226" /><g
             id="g238"><g
               style="opacity:0.80000299"
               id="g236"
               clip-path="url(#clipPath230)"><g
                 id="g234"
                 transform="translate(601.625,736)"><path
                   id="path232"
                   style="fill:#e3dece;fill-opacity:1;fill-rule:nonzero;stroke:none"
                   d="m 0,0 c 0,0 -3.212,-1.093 -4.5,-3.5 -1.844,-3.448 -1.515,-9.964 1.594,-13.497 5.281,-6 6.927,-11.104 6.927,-11.104 l -7.615,-16.283 c 0,0 -9.364,4.053 -15.698,12.053 -6.333,8 0,19.334 0,19.334 0,0 3.532,13.662 19.292,12.997" /></g></g></g></g></g></g><g
       id="g240"><g
         clip-path="url(#clipPath246)"
         id="g242"><g
           id="g248"><g
             id="g250" /><g
             id="g262"><g
               style="opacity:0.80000299"
               id="g260"
               clip-path="url(#clipPath254)"><g
                 id="g258"
                 transform="translate(626.2129,708.0566)"><path
                   id="path256"
                   style="fill:#e3dece;fill-opacity:1;fill-rule:nonzero;stroke:none"
                   d="m 0,0 -11.898,-1.682 c 0,0 3.56,-14.875 3.185,-16.625 -0.375,-1.75 11.625,4.875 11.625,4.875 0,0 5.426,7.489 -2.912,13.432" /></g></g></g></g></g></g><g
       id="g264"><g
         clip-path="url(#clipPath270)"
         id="g266"><g
           id="g272"><g
             id="g274" /><g
             id="g286"><g
               style="opacity:0.80000299"
               id="g284"
               clip-path="url(#clipPath278)"><g
                 id="g282"
                 transform="translate(604.0068,704.396)"><path
                   id="path280"
                   style="fill:#e8502e;fill-opacity:1;fill-rule:nonzero;stroke:none"
                   d="m 0,0 h 11.743 c 0,0 3.625,-16.521 -0.875,-23.396 -4.5,-6.875 -7.25,-7.625 -7.25,-7.625 0,0 -4.75,2.375 -7.125,9.75 -2.375,7.375 -1.781,11 -1.781,11 0,0 2.17,9.417 5.288,10.271" /></g></g></g></g><g
           id="g288"><g
             id="g290" /><g
             id="g302"><g
               style="opacity:0.80000299"
               id="g300"
               clip-path="url(#clipPath294)"><g
                 id="g298"
                 transform="translate(609.5,678.0142)"><path
                   id="path296"
                   style="fill:#e8502e;fill-opacity:1;fill-rule:nonzero;stroke:none"
                   d="m 0,0 7.63,-79.331 c 0,0 4.796,-26.998 0,-34.998 -4.796,-8 -7.63,-12.833 -7.63,-12.833 l -17.833,20.163 c 0,0 4.666,27.327 5.666,40.326 1,13 5.501,47.667 5.501,47.667 L -3.854,0 Z" /></g></g></g></g></g></g></g></svg>